<?xml version="1.0" encoding="UTF-8"?>
<svg id="Layer_1" data-name="Layer 1" xmlns="http://www.w3.org/2000/svg" viewBox="0 0 21.01 21.01">
  <style>
    .icon-fill {
      fill: #000000;
    }
    @media (prefers-color-scheme: dark) {
      .icon-fill {
        fill: #ffffff;
      }
    }
  </style>
      <g class="icon-fill">
  <path d="M14.99,7.9c1.52-.93,3.55-.23,4.24,1.39,1.12,2.66-1.76,5.21-4.24,3.77-.05,1.03.07,2.11,0,3.13-.11,1.7-1.31,3.04-3.01,3.25-2.43-.12-5.01.16-7.41,0-1.57-.1-2.9-1.45-3.05-3.01V6.65c.02-.4.38-.66.76-.68h11.92c.33-.03.8.34.8.68v1.25ZM13.47,7.49H2.99v8.82c0,.87,1.01,1.6,1.82,1.66,2.26.16,4.71-.11,6.99-.01.72,0,1.67-.89,1.67-1.61V7.49ZM17.97,10.48c0-.83-.67-1.5-1.5-1.5s-1.5.67-1.5,1.5.67,1.5,1.5,1.5,1.5-.67,1.5-1.5Z"/>
  <path d="M11.04,1.52c.55-.09.9.21.95.75.03.34.04,1.45-.06,1.74-.26.73-1.37.57-1.45-.18-.04-.35-.05-1.38,0-1.71.04-.27.28-.55.55-.59Z"/>
  <path d="M8.01,1.52c.42-.09.9.13.95.58.04.3.04,1.61-.02,1.87-.17.72-1.37.7-1.46-.15-.04-.35-.05-1.42,0-1.75.04-.21.3-.51.51-.55Z"/>
  <path d="M5.03,1.52c.45-.09.9.15.95.63.03.31.05,1.51,0,1.79-.14.69-1.23.75-1.43.06-.07-.23-.07-1.66-.02-1.92.04-.21.3-.51.51-.55Z"/>
</g>
</svg>